<mxfile host="app.diagrams.net" modified="2022-10-05T14:26:02.745Z" agent="5.0 (Macintosh; Intel Mac OS X 10_15_7) AppleWebKit/605.1.15 (KHTML, like Gecko) Version/15.6.1 Safari/605.1.15" etag="9HdvnhR_7CepiG3KnrSi" version="20.4.0" type="github">
  <diagram id="3AzF39oe3r0IqChFiqNv" name="Page-1">
    <mxGraphModel dx="1234" dy="852" grid="1" gridSize="10" guides="1" tooltips="1" connect="1" arrows="1" fold="1" page="1" pageScale="1" pageWidth="850" pageHeight="1100" math="0" shadow="0">
      <root>
        <mxCell id="0" />
        <mxCell id="1" parent="0" />
        <mxCell id="jmHpodaxJxcZQ-v2Plp--1" value="" style="ellipse;html=1;shape=startState;fillColor=#000000;strokeColor=#ff0000;" parent="1" vertex="1">
          <mxGeometry x="370" y="90" width="30" height="30" as="geometry" />
        </mxCell>
        <mxCell id="jmHpodaxJxcZQ-v2Plp--2" value="" style="edgeStyle=orthogonalEdgeStyle;html=1;verticalAlign=bottom;endArrow=open;endSize=8;strokeColor=#ff0000;rounded=0;" parent="1" source="jmHpodaxJxcZQ-v2Plp--1" edge="1">
          <mxGeometry relative="1" as="geometry">
            <mxPoint x="385" y="180" as="targetPoint" />
          </mxGeometry>
        </mxCell>
        <mxCell id="jmHpodaxJxcZQ-v2Plp--3" value="Open app" style="rounded=1;whiteSpace=wrap;html=1;arcSize=40;fontColor=#000000;fillColor=#ffffc0;strokeColor=#ff0000;" parent="1" vertex="1">
          <mxGeometry x="325" y="180" width="120" height="40" as="geometry" />
        </mxCell>
        <mxCell id="jmHpodaxJxcZQ-v2Plp--4" value="" style="edgeStyle=orthogonalEdgeStyle;html=1;verticalAlign=bottom;endArrow=open;endSize=8;strokeColor=#ff0000;rounded=0;entryX=0.5;entryY=0;entryDx=0;entryDy=0;" parent="1" source="jmHpodaxJxcZQ-v2Plp--3" target="jmHpodaxJxcZQ-v2Plp--5" edge="1">
          <mxGeometry relative="1" as="geometry">
            <mxPoint x="385" y="280" as="targetPoint" />
          </mxGeometry>
        </mxCell>
        <mxCell id="jmHpodaxJxcZQ-v2Plp--5" value="Already have account?&lt;br&gt;" style="rhombus;whiteSpace=wrap;html=1;fillColor=#ffffc0;strokeColor=#ff0000;" parent="1" vertex="1">
          <mxGeometry x="327.5" y="280" width="115" height="70" as="geometry" />
        </mxCell>
        <mxCell id="jmHpodaxJxcZQ-v2Plp--6" value="no" style="edgeStyle=orthogonalEdgeStyle;html=1;align=left;verticalAlign=bottom;endArrow=open;endSize=8;strokeColor=#ff0000;rounded=0;" parent="1" source="jmHpodaxJxcZQ-v2Plp--5" target="jmHpodaxJxcZQ-v2Plp--12" edge="1">
          <mxGeometry x="-1" relative="1" as="geometry">
            <mxPoint x="540" y="315" as="targetPoint" />
          </mxGeometry>
        </mxCell>
        <mxCell id="jmHpodaxJxcZQ-v2Plp--7" value="yes" style="edgeStyle=orthogonalEdgeStyle;html=1;align=left;verticalAlign=top;endArrow=open;endSize=8;strokeColor=#ff0000;rounded=0;" parent="1" source="jmHpodaxJxcZQ-v2Plp--5" target="jmHpodaxJxcZQ-v2Plp--8" edge="1">
          <mxGeometry x="-0.6986" y="-25" relative="1" as="geometry">
            <mxPoint x="230" y="400" as="targetPoint" />
            <mxPoint x="1" as="offset" />
          </mxGeometry>
        </mxCell>
        <mxCell id="jmHpodaxJxcZQ-v2Plp--11" style="edgeStyle=orthogonalEdgeStyle;rounded=0;orthogonalLoop=1;jettySize=auto;html=1;entryX=0.5;entryY=0;entryDx=0;entryDy=0;" parent="1" source="jmHpodaxJxcZQ-v2Plp--8" target="jmHpodaxJxcZQ-v2Plp--9" edge="1">
          <mxGeometry relative="1" as="geometry" />
        </mxCell>
        <mxCell id="jmHpodaxJxcZQ-v2Plp--8" value="Login (or auto login if user have already logined)" style="rounded=1;whiteSpace=wrap;html=1;arcSize=50;fontColor=#000000;fillColor=#ffffc0;strokeColor=#ff0000;" parent="1" vertex="1">
          <mxGeometry x="70" y="380" width="140" height="60" as="geometry" />
        </mxCell>
        <mxCell id="jmHpodaxJxcZQ-v2Plp--9" value="Watch Film" style="rounded=1;whiteSpace=wrap;html=1;arcSize=40;fontColor=#000000;fillColor=#ffffc0;strokeColor=#ff0000;" parent="1" vertex="1">
          <mxGeometry x="327.5" y="530" width="120" height="40" as="geometry" />
        </mxCell>
        <mxCell id="jmHpodaxJxcZQ-v2Plp--10" value="" style="edgeStyle=orthogonalEdgeStyle;html=1;verticalAlign=bottom;endArrow=open;endSize=8;strokeColor=#ff0000;rounded=0;entryX=0.5;entryY=0;entryDx=0;entryDy=0;" parent="1" source="jmHpodaxJxcZQ-v2Plp--9" target="jmHpodaxJxcZQ-v2Plp--14" edge="1">
          <mxGeometry relative="1" as="geometry">
            <mxPoint x="130" y="580" as="targetPoint" />
          </mxGeometry>
        </mxCell>
        <mxCell id="jmHpodaxJxcZQ-v2Plp--13" style="edgeStyle=orthogonalEdgeStyle;rounded=0;orthogonalLoop=1;jettySize=auto;html=1;entryX=0.5;entryY=0;entryDx=0;entryDy=0;" parent="1" source="jmHpodaxJxcZQ-v2Plp--12" target="jmHpodaxJxcZQ-v2Plp--9" edge="1">
          <mxGeometry relative="1" as="geometry" />
        </mxCell>
        <mxCell id="jmHpodaxJxcZQ-v2Plp--12" value="Register" style="rounded=1;whiteSpace=wrap;html=1;arcSize=40;fontColor=#000000;fillColor=#ffffc0;strokeColor=#ff0000;" parent="1" vertex="1">
          <mxGeometry x="580" y="380" width="120" height="40" as="geometry" />
        </mxCell>
        <mxCell id="jmHpodaxJxcZQ-v2Plp--14" value="" style="ellipse;html=1;shape=endState;fillColor=#000000;strokeColor=#ff0000;" parent="1" vertex="1">
          <mxGeometry x="372.5" y="650" width="30" height="30" as="geometry" />
        </mxCell>
      </root>
    </mxGraphModel>
  </diagram>
</mxfile>
